<?xml version="1.0" encoding="utf-8"?>
<!-- Generator: Adobe Illustrator 25.0.0, SVG Export Plug-In . SVG Version: 6.00 Build 0)  -->
<svg version="1.1" id="圖層_1" xmlns="http://www.w3.org/2000/svg" xmlns:xlink="http://www.w3.org/1999/xlink" x="0px" y="0px"
	 viewBox="0 0 100 100" style="enable-background:new 0 0 100 100;" xml:space="preserve">
<style type="text/css">
	.st0{stroke:#000000;stroke-width:0.75;stroke-miterlimit:10;}
</style>
<g transform="translate(1.4065934065934016 1.4065934065934016) scale(2.81 2.81)">
	<path class="st0" d="M34.2,18.6l-3.9-5.7c-0.2-0.3-0.5-0.4-0.8-0.4H26V9.3c0-1.5-0.8-2.8-1.8-2.8H12.3c-1,0-1.8,1.2-1.8,2.8v15.1
		c0,0.9,0.5,1.6,1.1,1.6h2.8c0.2,1.2,1.1,2.2,2.1,2.2c1,0,1.9-0.9,2.1-2.2h6.8H26h2.9c0.2,1.2,1.1,2.2,2.1,2.2s1.9-0.9,2.1-2.2h0.4
		c0.6,0,1-0.6,1-1.3v-5.1C34.5,19.2,34.4,18.9,34.2,18.6z M33.3,18.7h-4.6c-0.1,0-0.2-0.1-0.2-0.2v-2.7c0-0.1,0.1-0.2,0.2-0.2h2.5
		L33.3,18.7z M16.4,27.1c-0.8,0-1.4-0.8-1.4-1.8c0-1,0.6-1.8,1.4-1.8c0.8,0,1.4,0.8,1.4,1.8C17.8,26.3,17.2,27.1,16.4,27.1z
		 M25.2,24.9h-6.7c-0.1-1.4-1-2.4-2.1-2.4s-2,1.1-2.1,2.4h-2.7c-0.1,0-0.3-0.2-0.3-0.6V9.3c0-1,0.5-1.8,1-1.8h11.9
		c0.6,0,1,0.8,1,1.8v3.2L25.2,24.9L25.2,24.9z M31,27.1c-0.8,0-1.4-0.8-1.4-1.8c0-1,0.6-1.8,1.4-1.8s1.4,0.8,1.4,1.8
		C32.4,26.3,31.7,27.1,31,27.1z M33.5,24.9h-0.4c-0.1-1.4-1-2.4-2.1-2.4c-1.1,0-2,1.1-2.1,2.4H26V13.5h3.6c0.1,0,0.1,0,0.2,0.1
		l0.6,0.9h-1.8c-0.5,0-0.9,0.6-0.9,1.2v2.7c0,0.7,0.4,1.2,0.9,1.2h5.1v4.9C33.7,24.8,33.6,24.9,33.5,24.9z"/>
	<path class="st0" d="M8.2,21.3H3.4C3.2,21.3,3,21,3,20.8c0-0.3,0.2-0.5,0.4-0.5h4.8c0.2,0,0.4,0.2,0.4,0.5
		C8.6,21,8.4,21.3,8.2,21.3z"/>
	<path class="st0" d="M8.2,17.8H1.9c-0.2,0-0.4-0.2-0.4-0.5s0.2-0.5,0.4-0.5h6.3c0.2,0,0.4,0.2,0.4,0.5S8.4,17.8,8.2,17.8z"/>
	<path class="st0" d="M8.2,14.4H0.5c-0.2,0-0.4-0.2-0.4-0.5c0-0.3,0.2-0.5,0.4-0.5h7.7c0.2,0,0.4,0.2,0.4,0.5
		C8.6,14.1,8.4,14.4,8.2,14.4z"/>
</g>
</svg>
