<?xml version="1.0" encoding="utf-8"?>
<!-- Generator: Adobe Illustrator 25.0.0, SVG Export Plug-In . SVG Version: 6.00 Build 0)  -->
<svg version="1.1" id="圖層_1" xmlns="http://www.w3.org/2000/svg" xmlns:xlink="http://www.w3.org/1999/xlink" x="0px" y="0px"
	 viewBox="0 0 60 60" style="enable-background:new 0 0 60 60;" xml:space="preserve">
<style type="text/css">
	.st0{fill:none;stroke:#020202;stroke-width:3;stroke-miterlimit:41.6667;}
</style>
<g id="surface1">
	<path class="st0" d="M13.2,38c-0.9-0.4-1.9-0.6-2.9-0.6c-4.1,0-7.4,3.3-7.4,7.4s3.3,7.4,7.4,7.4c4.1,0,7.4-3.3,7.4-7.4"/>
	<path class="st0" d="M57.1,44.8c0,4.1-3.3,7.4-7.4,7.4c-4.1,0-7.4-3.3-7.4-7.4s3.3-7.4,7.4-7.4C53.8,37.4,57.1,40.7,57.1,44.8z"/>
	<path class="st0" d="M42.3,44.8V20.1h4.9l0.4,0.4c4.5,4.5,7,10.5,7,16.8h-4.9"/>
	<path class="st0" d="M47.2,10.3h4.9v9.8h-4.9c-2.7,0-4.9-2.2-4.9-4.9S44.5,10.3,47.2,10.3z"/>
	<path class="st0" d="M34.9,7.8h2.5c1.3,0,2.6,0.5,3.5,1.4c0.9,0.9,1.4,2.2,1.4,3.5v7.4"/>
	<path class="st0" d="M2.9,17.7l4.9,4.9"/>
	<path class="st0" d="M25.1,44.8V30l1.4-1.4c0.7-0.7,1.1-1.6,1-2.6c-0.1-1.9-1.6-3.4-3.5-3.4H7.9L7,23.8c-2.7,4-4.1,8.7-4.1,13.5
		h9.9l0.4,0.6l4.5,6.8h24.6"/>
</g>
</svg>
