<?xml version="1.0" encoding="utf-8"?>
<!-- Generator: Adobe Illustrator 25.0.0, SVG Export Plug-In . SVG Version: 6.00 Build 0)  -->
<svg version="1.1" id="圖層_1" xmlns="http://www.w3.org/2000/svg" xmlns:xlink="http://www.w3.org/1999/xlink" x="0px" y="0px"
	 viewBox="0 0 256 256" style="enable-background:new 0 0 256 256;" xml:space="preserve">
<style type="text/css">
	.st0{stroke:#000000;stroke-width:0.75;stroke-miterlimit:10;}
</style>
<g transform="translate(1.4065934065934016 1.4065934065934016) scale(2.81 2.81)">
	<path class="st0" d="M79.8,66.1c-3.1,0-5.6-2.5-5.6-5.6s2.5-5.6,5.6-5.6s5.6,2.5,5.6,5.6S82.9,66.1,79.8,66.1z M79.8,56.8
		c-2,0-3.6,1.6-3.6,3.6s1.6,3.6,3.6,3.6s3.6-1.6,3.6-3.6S81.8,56.8,79.8,56.8z"/>
	<path class="st0" d="M69.8,62.6c-0.1,0-0.2,0-0.4,0c-0.6-0.1-1.1-0.6-1.3-1.2c-0.7-3-0.2-6.1,1.5-8.8c2.5-3.9,7.5-5.9,12-4.8
		c3.3,0.8,6.1,3,7.5,6.1c0.3,0.6,0.2,1.3-0.2,1.8c-0.4,0.5-1.1,0.7-1.7,0.6c-6-1.4-12.3,0.9-16.1,5.8C70.8,62.4,70.3,62.6,69.8,62.6
		z M79.1,49.4c-3.1,0-6.1,1.6-7.8,4.2c-1.3,2-1.7,4.3-1.4,6.6c4.2-4.9,10.8-7.3,17.1-6.1c-1.3-2.2-3.4-3.8-5.9-4.4
		C80.5,49.5,79.8,49.4,79.1,49.4z M87.4,54.7L87.4,54.7L87.4,54.7L87.4,54.7z"/>
	<path class="st0" d="M48.1,42.3H24.6c-2.7,0-4.9-2.2-4.9-4.9V24.2c0-2.7,2.2-4.9,4.9-4.9h18.6c2.7,0,4.9,2.2,4.9,4.9V42.3z
		 M24.6,21.3c-1.6,0-2.9,1.3-2.9,2.9v13.2c0,1.6,1.3,2.9,2.9,2.9h21.6V24.2c0-1.6-1.3-2.9-2.9-2.9H24.6z"/>
	<path class="st0" d="M75,36.6h-0.6c-3.2,0-5.7-2.6-5.7-5.7s2.6-5.7,5.7-5.7H75c1.3,0,2.4,1.1,2.4,2.4v6.6
		C77.4,35.5,76.3,36.6,75,36.6z M74.4,27.1c-2.1,0-3.7,1.7-3.7,3.7s1.7,3.7,3.7,3.7H75c0.2,0,0.4-0.2,0.4-0.4v-6.6
		c0-0.2-0.2-0.4-0.4-0.4L74.4,27.1L74.4,27.1z"/>
	<path class="st0" d="M66.1,28.5c-0.6,0-5.7-0.7-5.7-3s5.1-3,5.7-3c1.7,0,3,1.4,3,3C69.1,27.2,67.8,28.5,66.1,28.5z M62.6,25.5
		c0.7,0.5,2.6,1,3.5,1c0.6,0,1-0.5,1-1s-0.5-1-1-1C65.2,24.5,63.3,25,62.6,25.5z"/>
	<path class="st0" d="M39.8,70.7c-5.6,0-10.2-4.6-10.2-10.2c0-0.4,0-0.8,0.1-1.2l2,0.2c0,0.3-0.1,0.6-0.1,0.9c0,4.5,3.7,8.2,8.2,8.2
		S48,65,48,60.5c0-0.3,0-0.6-0.1-0.9l2-0.2c0,0.4,0.1,0.8,0.1,1.2C50,66.1,45.4,70.7,39.8,70.7z"/>
	<path class="st0" d="M39.8,66.1c-3.1,0-5.6-2.5-5.6-5.6c0-0.4,0.1-0.9,0.2-1.3l1.9,0.5c-0.1,0.3-0.1,0.6-0.1,0.8
		c0,2,1.6,3.6,3.6,3.6s3.6-1.6,3.6-3.6c0-0.3,0-0.6-0.1-0.8l1.9-0.5c0.1,0.4,0.2,0.9,0.2,1.3C45.5,63.6,42.9,66.1,39.8,66.1z"/>
	<path class="st0" d="M79.8,70.7c-5.4,0-9.8-4.2-10.2-9.6l2-0.1c0.3,4.3,3.9,7.7,8.2,7.7c4.5,0,8.2-3.7,8.2-8.2
		c0-1.7-0.5-3.3-1.5-4.7l1.6-1.2c1.2,1.7,1.9,3.8,1.9,5.9C90,66.1,85.4,70.7,79.8,70.7z"/>
	<path class="st0" d="M68.9,60.4H27.2c-1.3,0-2.5-0.6-3.3-1.7c-0.7-1.1-0.9-2.4-0.5-3.7l3.6-9.7c1.1-3,4-5,7.1-5h12.6
		c2.7,0,4.8,2.2,4.8,4.8v4.4c0,1.2,1,2.2,2.2,2.2h9.4c0.7,0,1.4-0.3,1.9-0.9c0.5-0.6,0.7-1.3,0.5-2.1l-3.7-17.5
		c-0.4-1.7,0.1-3.5,1.3-4.8l1.5,1.3c-0.7,0.8-1,1.9-0.8,3l3.7,17.5c0.3,1.3-0.1,2.7-0.9,3.8c-0.9,1-2.1,1.6-3.5,1.6h-9.4
		c-2.3,0-4.2-1.9-4.2-4.2v-4.4c0-1.6-1.3-2.8-2.8-2.8H34.2c-2.3,0-4.4,1.5-5.3,3.7l-3.6,9.7c-0.2,0.6-0.1,1.3,0.2,1.8
		c0.4,0.5,1,0.8,1.6,0.8h41.7V60.4z"/>
	<rect x="67.8" y="26.3" transform="matrix(0.8687 -0.4953 0.4953 0.8687 -4.9481 37.7669)" class="st0" width="2" height="3.8"/>
	<rect x="75.6" y="34.3" transform="matrix(0.8687 -0.4953 0.4953 0.8687 -10.7027 43.4304)" class="st0" width="2" height="15.2"/>
	<path class="st0" d="M19.2,52.6H8c-0.6,0-1-0.4-1-1s0.4-1,1-1h11.2c0.6,0,1,0.4,1,1S19.7,52.6,19.2,52.6z"/>
	<path class="st0" d="M17.6,44.8H1c-0.6,0-1-0.4-1-1s0.4-1,1-1h16.6c0.6,0,1,0.4,1,1S18.2,44.8,17.6,44.8z"/>
	<path class="st0" d="M14.5,37H1c-0.6,0-1-0.4-1-1s0.4-1,1-1h13.5c0.6,0,1,0.4,1,1S15.1,37,14.5,37z"/>
	<path class="st0" d="M14.5,29.1H8c-0.6,0-1-0.4-1-1s0.4-1,1-1h6.5c0.6,0,1,0.4,1,1S15.1,29.1,14.5,29.1z"/>
</g>
</svg>
