<?xml version="1.0" encoding="utf-8"?>
<!-- Generator: Adobe Illustrator 25.0.0, SVG Export Plug-In . SVG Version: 6.00 Build 0)  -->
<svg version="1.1" id="圖層_1" xmlns="http://www.w3.org/2000/svg" xmlns:xlink="http://www.w3.org/1999/xlink" x="0px" y="0px"
	 viewBox="0 0 100 100" style="enable-background:new 0 0 100 100;" xml:space="preserve">
<style type="text/css">
	.st0{stroke:#000000;stroke-miterlimit:10;}
</style>
<g transform="translate(1.4065934065934016 1.4065934065934016) scale(2.81 2.81)">
	<path class="st0" d="M34.1,13l-5.2-8.9c-0.1-0.2-0.3-0.3-0.5-0.3H6.6c-0.2,0-0.4,0.1-0.5,0.3L0.5,13c-0.1,0.1-0.1,0.2-0.1,0.3
		c0,2.2,2.1,4,4.6,4c0.3,0,0.5,0,0.7-0.1v12.3c0,0.7,0.5,1.2,1.2,1.2h20.7c0.7,0,1.2-0.5,1.2-1.2V17.3c0.2,0,0.5,0.1,0.7,0.1
		c2.6,0,4.6-1.8,4.6-4C34.2,13.2,34.2,13.1,34.1,13z M20,29.6h-5.5v-6.3c0-1.5,1.2-2.7,2.7-2.7c1.5,0,2.7,1.2,2.7,2.7V29.6z
		 M27.7,29.6C27.7,29.6,27.7,29.6,27.7,29.6l-6.6,0.1v-6.3c0-2.1-1.7-3.8-3.8-3.8c-2.1,0-3.8,1.7-3.8,3.8v6.3H7c0,0-0.1,0-0.1-0.1
		V17c1-0.4,1.7-1,2.2-1.8c0.8,1.3,2.3,2.1,4.1,2.1s3.3-0.9,4.1-2.1c0.8,1.3,2.3,2.1,4.1,2.1s3.3-0.9,4.1-2.1
		c0.5,0.8,1.3,1.4,2.2,1.8L27.7,29.6L27.7,29.6z M29.6,16.2c-1.9,0-3.5-1.3-3.5-2.9c0-0.3-0.2-0.6-0.6-0.6c-0.3,0-0.6,0.2-0.6,0.6
		c0,1.6-1.6,2.9-3.5,2.9s-3.5-1.3-3.5-2.9c0-0.3-0.2-0.6-0.6-0.6c-0.3,0-0.6,0.2-0.6,0.6c0,1.6-1.6,2.9-3.5,2.9s-3.5-1.3-3.5-2.9
		c0-0.3-0.2-0.6-0.6-0.6c-0.3,0-0.6,0.2-0.6,0.6c0,1.6-1.6,2.9-3.5,2.9c-1.9,0-3.4-1.2-3.5-2.8L6.9,5h21.3l4.9,8.5
		C33,15,31.4,16.2,29.6,16.2z"/>
</g>
</svg>
